<svg width="42" height="42" viewBox="0 0 42 42" fill="none" xmlns="http://www.w3.org/2000/svg">
<g clip-path="url(#clip0_1118_522)">
<path d="M36.0938 12.7148H30.0398C30.5977 11.8371 30.9258 10.7953 30.9258 9.67969C30.9258 6.5584 28.3869 4.01953 25.2656 4.01953C23.5676 4.01953 22.0377 4.77422 21 5.96367C19.9623 4.77422 18.4324 4.01953 16.7344 4.01953C13.6131 4.01953 11.0742 6.5584 11.0742 9.67969C11.0742 10.7953 11.3982 11.8371 11.9602 12.7148H5.90625C5.18027 12.7148 4.59375 13.3014 4.59375 14.0273V22.2305C4.59375 22.4109 4.74141 22.5586 4.92188 22.5586H6.5625V36.668C6.5625 37.3939 7.14902 37.9805 7.875 37.9805H34.125C34.851 37.9805 35.4375 37.3939 35.4375 36.668V22.5586H37.0781C37.2586 22.5586 37.4062 22.4109 37.4062 22.2305V14.0273C37.4062 13.3014 36.8197 12.7148 36.0938 12.7148ZM22.3945 9.67969C22.3945 8.09648 23.6824 6.80859 25.2656 6.80859C26.8488 6.80859 28.1367 8.09648 28.1367 9.67969C28.1367 11.2629 26.8488 12.5508 25.2656 12.5508H22.3945V9.67969ZM16.7344 6.80859C18.3176 6.80859 19.6055 8.09648 19.6055 9.67969V12.5508H16.7344C15.1512 12.5508 13.8633 11.2629 13.8633 9.67969C13.8633 8.09648 15.1512 6.80859 16.7344 6.80859ZM7.38281 19.7695V15.5039H19.6055V19.7695H7.38281ZM9.35156 22.5586H19.6055V35.1914H9.35156V22.5586ZM32.6484 35.1914H22.3945V22.5586H32.6484V35.1914ZM34.6172 19.7695H22.3945V15.5039H34.6172V19.7695Z" fill="white"/>
</g>
<defs>
<clipPath id="clip0_1118_522">
<rect width="42" height="42" fill="white"/>
</clipPath>
</defs>
</svg>
